<svg xmlns="http://www.w3.org/2000/svg" aria-hidden="true" role="img" width="32" height="32" viewBox="0 0 32 32" preserveAspectRatio="xMidYMid meet">
  <g transform="translate(16,16) scale(0.038,-0.038) translate(-370,-370)"> <!-- Slightly smaller scale -->
    <!-- background black stroke for border -->
    <path d="M657 424V272Q657 194 618.5 128.0Q580 62 514.0 23.5Q448 -15 370 -15Q292 -15 226.0 23.5Q160 62 121.5 128.0Q83 194 83 272V424Q83 502 121.5 568.0Q160 634 226.0 672.5Q292 711 370 711Q448 711 514.0 672.5Q580 634 618.5 568.0Q657 502 657 424ZM370 22Q438 22 495.5 55.5Q553 89 586.5 146.5Q620 204 620 272V424Q620 492 586.5 549.5Q553 607 495.5 640.5Q438 674 370 674Q302 674 244.5 640.5Q187 607 153.5 549.5Q120 492 120 424V272Q120 204 153.5 146.5Q187 89 244.5 55.5Q302 22 370 22Z" fill="none" stroke="black" stroke-width="150"/>
    <path d="M107 0 588 740H633L152 0Z" fill="none" stroke="black" stroke-width="150"/>
    <!-- colored stroke on top -->
    <path d="M657 424V272Q657 194 618.5 128.0Q580 62 514.0 23.5Q448 -15 370 -15Q292 -15 226.0 23.5Q160 62 121.5 128.0Q83 194 83 272V424Q83 502 121.5 568.0Q160 634 226.0 672.5Q292 711 370 711Q448 711 514.0 672.5Q580 634 618.5 568.0Q657 502 657 424ZM370 22Q438 22 495.5 55.5Q553 89 586.5 146.5Q620 204 620 272V424Q620 492 586.5 549.5Q553 607 495.5 640.5Q438 674 370 674Q302 674 244.5 640.5Q187 607 153.5 549.5Q120 492 120 424V272Q120 204 153.5 146.5Q187 89 244.5 55.5Q302 22 370 22Z" fill="none" stroke="#9810fa" stroke-width="80"/>
    <path d="M107 0 588 740H633L152 0Z" fill="none" stroke="#9810fa" stroke-width="80"/>
  </g>
</svg>
